<?xml version="1.0" standalone="no"?>
<!DOCTYPE svg PUBLIC "-//W3C//DTD SVG 20010904//EN"
 "http://www.w3.org/TR/2001/REC-SVG-20010904/DTD/svg10.dtd">
<svg version="1.0" xmlns="http://www.w3.org/2000/svg"
 width="222.000000pt" height="201.000000pt" viewBox="0 0 222.000000 201.000000"
 preserveAspectRatio="xMidYMid meet">

<g transform="translate(0.000000,201.000000) scale(0.100000,-0.100000)"
fill="#000000" stroke="none">
<path d="M115 1983 c-46 -24 -66 -45 -86 -88 -17 -37 -19 -78 -19 -615 0 -349
4 -589 10 -609 14 -49 74 -107 125 -121 23 -6 74 -10 114 -8 39 1 72 -1 74 -6
7 -21 -16 -146 -39 -216 -26 -76 -74 -164 -115 -210 -12 -14 -31 -35 -42 -47
-24 -27 -15 -63 15 -63 33 0 184 58 268 103 125 66 211 128 295 212 69 69 155
188 155 215 0 5 257 10 598 12 574 3 599 4 637 23 22 11 53 40 70 63 l30 44 3
581 c2 388 0 594 -8 618 -12 42 -63 100 -103 117 -21 9 -261 12 -990 12 -858
-1 -965 -3 -992 -17z m1959 -63 c36 -13 57 -52 58 -107 1 -26 0 -292 -1 -590
l-1 -541 -26 -31 -26 -31 -621 -2 -622 -3 -18 -40 c-53 -114 -171 -245 -294
-327 -100 -67 -233 -133 -233 -115 0 2 16 36 35 75 44 89 75 202 82 304 8 108
8 108 -139 108 -119 0 -120 0 -149 29 l-29 29 0 599 0 600 23 20 c12 11 29 23
37 26 27 10 1897 8 1924 -3z"/>
<path d="M1207 1464 c-88 -27 -157 -120 -157 -211 0 -150 175 -258 315 -194
53 24 111 90 125 142 44 162 -120 314 -283 263z m151 -99 c48 -41 61 -140 24
-190 -51 -72 -169 -72 -216 -1 -41 64 -28 149 30 195 40 31 123 29 162 -4z"/>
<path d="M1743 1470 c-151 -30 -224 -181 -154 -318 23 -45 43 -63 100 -92 59
-30 157 -25 222 11 l44 24 3 98 3 98 -88 -3 -88 -3 0 -35 c0 -34 1 -35 45 -40
39 -4 45 -8 48 -30 1 -14 -2 -31 -7 -39 -12 -19 -104 -26 -141 -11 -86 35
-102 172 -29 234 37 31 112 36 161 10 31 -16 32 -16 55 10 13 15 23 32 23 37
0 13 -75 45 -120 52 -19 2 -54 1 -77 -3z"/>
<path d="M267 1463 c-4 -3 -7 -98 -7 -210 0 -155 3 -203 13 -204 6 0 66 0 132
1 167 2 203 20 213 105 4 42 2 48 -33 81 l-38 35 24 25 c51 55 19 142 -60 164
-40 11 -234 14 -244 3z m231 -85 c15 -15 15 -51 0 -66 -7 -7 -40 -12 -80 -12
l-68 0 0 45 0 45 68 0 c40 0 73 -5 80 -12z m20 -170 c7 -7 12 -25 12 -40 0
-37 -33 -50 -114 -46 l-61 3 -3 48 -3 47 78 0 c48 0 84 -5 91 -12z"/>
<path d="M702 1258 l3 -213 145 2 145 2 0 38 0 38 -102 3 -103 3 -2 167 -3
167 -43 3 -42 3 2 -213z"/>
</g>
</svg>
